<svg enable-background="new 0 0 512 512" height="512" viewBox="0 0 512 512" width="512" xmlns="http://www.w3.org/2000/svg"><path d="m385.621 390.771c39.335-35.996 61.739-86.636 61.739-140.162 0-104.766-85.233-190-190-190s-190 85.234-190 190c0 125.188 119.958 217.084 241.508 182.919 95.322 21.903 90.336 21.081 92.492 21.081 7.419 0 12.269-7.822 8.944-14.473zm-77.032 22.429c-.958 0-1.915.138-2.842.412-109.47 32.448-218.387-50.188-218.387-163.004 0-93.738 76.262-170 170-170s170 76.262 170 170c0 50.256-22.078 97.672-60.573 130.089-3.535 2.978-4.569 7.988-2.503 12.122l18.637 37.271c-75.846-17.41-72.19-16.89-74.332-16.89z"/></svg>