<?xml version="1.0" encoding="iso-8859-1"?>
<!-- Generator: Adobe Illustrator 19.0.0, SVG Export Plug-In . SVG Version: 6.00 Build 0)  -->
<svg version="1.1" id="Capa_1" xmlns="http://www.w3.org/2000/svg" xmlns:xlink="http://www.w3.org/1999/xlink" x="0px" y="0px"
	 viewBox="0 0 512 512" style="enable-background:new 0 0 512 512;" xml:space="preserve">
<g>
	<g>
		<path d="M165.641,55.419c-50.224,0-91.089,43.305-91.089,96.539c0,53.244,40.865,96.549,91.089,96.549
			c50.224,0,91.079-43.305,91.079-96.549C256.72,98.723,215.865,55.419,165.641,55.419z M165.641,218.509
			c-33.686,0-61.093-29.857-61.093-66.552c0-36.696,27.407-66.542,61.093-66.542c33.676,0,61.083,29.846,61.083,66.542
			C226.723,188.653,199.317,218.509,165.641,218.509z"/>
	</g>
</g>
<g>
	<g>
		<path d="M371.076,69.167c-43.145,0.36-77.951,37.786-77.571,83.44c0.18,21.917,8.369,42.515,23.037,57.983
			c14.798,15.598,34.406,24.167,55.273,24.167h0.63c43.145-0.36,77.941-37.786,77.571-83.44
			C449.637,105.663,414.201,68.827,371.076,69.167z M372.196,204.761c-12.698,0.09-24.727-5.159-33.886-14.818
			c-9.429-9.939-14.688-23.287-14.808-37.586c-0.24-29.107,21.218-52.974,47.824-53.194h0.37c26.437,0,48.084,23.417,48.324,52.394
			C420.261,180.674,398.803,204.541,372.196,204.761z"/>
	</g>
</g>
<g>
	<g>
		<path d="M512,389.829c0-77.331-62.913-140.244-140.244-140.244c-41.935,0-79.641,18.508-105.358,47.794
			c-27.937-21.477-62.883-34.256-100.758-34.256C74.301,263.124,0,337.435,0,428.765v27.817h331.271v-27.817
			c0-4.469-0.18-8.899-0.53-13.278H512V389.829z M30.016,426.585c1.16-73.791,61.553-133.464,135.624-133.464
			c31.446,0,60.423,10.759,83.46,28.777c8.289,6.499,15.798,13.928,22.387,22.127c9.839,12.269,17.588,26.267,22.717,41.465
			c3.23,9.569,5.419,19.608,6.429,29.996c0.36,3.66,0.57,7.359,0.63,11.099H30.016z M325.532,385.49
			c-6.919-25.557-19.828-48.684-37.096-67.772c20.228-23.347,50.084-38.136,83.32-38.136c59.333,0,107.877,47.125,110.167,105.908
			H325.532z"/>
	</g>
</g>
<g>
</g>
<g>
</g>
<g>
</g>
<g>
</g>
<g>
</g>
<g>
</g>
<g>
</g>
<g>
</g>
<g>
</g>
<g>
</g>
<g>
</g>
<g>
</g>
<g>
</g>
<g>
</g>
<g>
</g>
</svg>
