<svg fill="none" height="512" viewBox="0 0 24 24" width="512" xmlns="http://www.w3.org/2000/svg"><path clip-rule="evenodd" d="m12 1.25c-4.28017 0-7.74996 3.46979-7.74996 7.75v.7041c0 .6969-.20629 1.3783-.59287 1.9581l-1.14861 1.7229c-1.33309 1.9997-.31538 4.7177 2.00321 5.35.75561.2061 1.5176.3804 2.28401.523l.0019.0051c.76899 2.0519 2.8243 3.4868 5.20232 3.4868 2.378 0 4.4333-1.4349 5.2023-3.4868l.0019-.0051c.7664-.1426 1.5285-.3169 2.2841-.523 2.3186-.6323 3.3363-3.3503 2.0032-5.35l-1.1486-1.7229c-.3866-.5798-.5929-1.2612-.5929-1.9581v-.7041c0-4.28021-3.4698-7.75-7.75-7.75zm3.3764 18.287c-2.2429.268-4.51.2679-6.75291-.0001.71095 1.0216 1.94751 1.7131 3.37651 1.7131 1.4289 0 2.6655-.6915 3.3764-1.713zm-9.62636-10.537c0-3.45178 2.79822-6.25 6.24996-6.25 3.4518 0 6.25 2.79822 6.25 6.25v.7041c0 .9931.294 1.9639.8448 2.7902l1.1486 1.7229c.7652 1.1477.1811 2.7078-1.1498 3.0708-4.6442 1.2666-9.5429 1.2666-14.18716 0-1.33083-.363-1.91497-1.9231-1.1498-3.0708l1.1486-1.7229c.55085-.8263.8448-1.7971.8448-2.7902z" fill="rgb(0,0,0)" fill-rule="evenodd"/></svg>