<?xml version="1.0" encoding="UTF-8"?>
<svg version="1.1" xmlns="http://www.w3.org/2000/svg" width="512" height="512">
<path d="M0 0 C1.24853107 -0.00382555 2.49706213 -0.00765109 3.78342748 -0.01159257 C7.21438144 -0.0200668 10.64511878 -0.01971164 14.07606602 -0.01541197 C17.78990847 -0.01292989 21.5037265 -0.02197725 25.21755981 -0.02944946 C32.48043954 -0.04215804 39.74328222 -0.04399492 47.0061712 -0.0416492 C52.91440934 -0.03986138 58.8226363 -0.0416256 64.73087311 -0.04587364 C65.5738882 -0.04646883 66.4169033 -0.04706402 67.2854643 -0.04767724 C68.99843619 -0.04888908 70.71140809 -0.05010322 72.42437997 -0.05131962 C88.4666513 -0.0621806 104.50890157 -0.06003965 120.55117407 -0.05393478 C135.19924418 -0.04876827 149.84724773 -0.0600166 164.49530467 -0.07903299 C179.56561349 -0.09844631 194.63589089 -0.10666119 209.70621228 -0.10290974 C218.15510324 -0.10100282 226.60393759 -0.10343535 235.0528183 -0.11762428 C242.24649586 -0.12958377 249.44008197 -0.13089216 256.6337609 -0.11883412 C260.29756799 -0.11297697 263.96120819 -0.1117572 267.62500381 -0.12383652 C285.36291487 -0.17832846 301.99738556 -0.02773375 318.73516846 6.51069641 C319.52987549 6.81370667 320.32458252 7.11671692 321.14337158 7.4289093 C336.84733791 13.57180074 349.80645039 22.73706699 362.04766846 34.26069641 C362.95259033 35.0689386 362.95259033 35.0689386 363.87579346 35.89350891 C376.75670134 47.87154942 385.34807439 64.50585571 390.92266846 80.94819641 C391.20908203 81.79067932 391.49549561 82.63316223 391.79058838 83.50117493 C395.26941514 94.30594002 396.34570423 104.90288519 396.30836487 116.21302795 C396.31219042 117.46155902 396.31601596 118.71009009 396.31995744 119.99645543 C396.32843167 123.4274094 396.3280765 126.85814674 396.32377684 130.28909397 C396.32129475 134.00293643 396.33034212 137.71675446 396.33781433 141.43058777 C396.35052291 148.69346749 396.35235979 155.95631018 396.35001407 163.21919915 C396.34822625 169.12743729 396.34999046 175.03566425 396.35423851 180.94390106 C396.3548337 181.78691616 396.35542889 182.62993125 396.35604211 183.49849226 C396.35725395 185.21146415 396.35846809 186.92443604 396.35968449 188.63740793 C396.37054547 204.67967925 396.36840452 220.72192953 396.36229964 236.76420203 C396.35713314 251.41227213 396.36838147 266.06027568 396.38739786 280.70833263 C396.40681118 295.77864145 396.41502606 310.84891884 396.41127461 325.91924024 C396.40936769 334.3681312 396.41180022 342.81696555 396.42598915 351.26584625 C396.43794864 358.45952382 396.43925703 365.65310993 396.42719898 372.84678885 C396.42134184 376.51059595 396.42012207 380.17423615 396.43220139 383.83803177 C396.48669333 401.57594282 396.33609862 418.21041351 389.79766846 434.94819641 C389.4946582 435.74290344 389.19164795 436.53761047 388.87945557 437.35639954 C382.73656413 453.06036586 373.57129788 466.01947835 362.04766846 478.26069641 C361.23942627 479.16561829 361.23942627 479.16561829 360.41485596 480.08882141 C349.06771867 492.29127056 333.11549065 500.90885749 317.61016846 506.57319641 C316.99166016 506.80361633 316.37315186 507.03403625 315.73590088 507.2714386 C299.30267523 512.92133216 282.72272051 512.69989285 265.55500841 512.65287042 C261.84395781 512.64601357 258.13294775 512.65659363 254.42190552 512.66481018 C247.17292187 512.67807974 239.92403194 512.67530023 232.67504478 512.66657226 C226.77834037 512.65976924 220.88166204 512.65889025 214.98495483 512.66214371 C213.72124513 512.66283326 213.72124513 512.66283326 212.43200594 512.66353673 C210.72000018 512.66449601 209.00799443 512.66546865 207.29598868 512.66645451 C191.28039226 512.67498855 175.26484753 512.66520556 159.24925959 512.64905341 C145.53717991 512.63565204 131.82517645 512.63798069 118.11309814 512.65180969 C102.15086712 512.66790072 86.18868129 512.67416476 70.22644329 512.6649729 C68.52108956 512.66401736 66.81573582 512.66307424 65.11038208 512.66214371 C63.85211226 512.66144947 63.85211226 512.66144947 62.56842285 512.6607412 C56.68568996 512.65816186 50.80298598 512.6624994 44.92025757 512.66958237 C37.74130966 512.67803685 30.56246002 512.67563489 23.38352323 512.65974014 C19.7277939 512.65191013 16.07222784 512.64867454 12.41650009 512.65868759 C-5.29944451 512.70317567 -21.9230602 512.54091864 -38.63983154 506.01069641 C-39.43453857 505.70768616 -40.22924561 505.4046759 -41.04803467 505.09248352 C-56.75200099 498.94959209 -69.71111348 489.78432583 -81.95233154 478.26069641 C-82.85725342 477.45245422 -82.85725342 477.45245422 -83.78045654 476.62788391 C-96.66136443 464.6498434 -105.25273747 448.01553711 -110.82733154 431.57319641 C-111.2569519 430.30947205 -111.2569519 430.30947205 -111.69525146 429.0202179 C-115.17407822 418.2154528 -116.25036732 407.61850764 -116.21302795 396.30836487 C-116.2168535 395.0598338 -116.22067905 393.81130273 -116.22462052 392.52493739 C-116.23309476 389.09398342 -116.23273959 385.66324608 -116.22843993 382.23229885 C-116.22595784 378.5184564 -116.23500521 374.80463837 -116.24247742 371.09080505 C-116.25518599 363.82792533 -116.25702288 356.56508264 -116.25467715 349.30219367 C-116.25288934 343.39395553 -116.25465355 337.48572857 -116.2589016 331.57749176 C-116.25949679 330.73447667 -116.26009197 329.89146157 -116.2607052 329.02290057 C-116.26191704 327.30992867 -116.26313117 325.59695678 -116.26434758 323.88398489 C-116.27520855 307.84171357 -116.2730676 291.7994633 -116.26696273 275.75719079 C-116.26179623 261.10912069 -116.27304455 246.46111714 -116.29206095 231.81306019 C-116.31147426 216.74275137 -116.31968915 201.67247398 -116.3159377 186.60215259 C-116.31403077 178.15326163 -116.3164633 169.70442728 -116.33065224 161.25554657 C-116.34261173 154.06186901 -116.34392012 146.8682829 -116.33186207 139.67460397 C-116.32600493 136.01079688 -116.32478516 132.34715667 -116.33686447 128.68336105 C-116.39135641 110.94545 -116.2407617 94.31097931 -109.70233154 77.57319641 C-109.24781616 76.38113586 -109.24781616 76.38113586 -108.78411865 75.16499329 C-102.64122722 59.46102696 -93.47596096 46.50191448 -81.95233154 34.26069641 C-81.14408936 33.35577454 -81.14408936 33.35577454 -80.31951904 32.43257141 C-68.34147853 19.55166352 -51.70717224 10.96029048 -35.26483154 5.38569641 C-34.42234863 5.09928284 -33.57986572 4.81286926 -32.71185303 4.51777649 C-21.90708793 1.03894973 -11.31014277 -0.03733936 0 0 Z M121.27423096 137.38179016 C118.07209215 142.28697732 117.75326687 146.84919382 117.76055908 152.58345032 C117.75372604 153.40841507 117.74689301 154.23337982 117.73985291 155.08334351 C117.72629692 156.86863622 117.71722311 158.6539674 117.71214294 160.43930435 C117.70384138 163.26348097 117.68332681 166.08733619 117.65960693 168.91142273 C117.60324816 175.92200447 117.5679477 182.93266404 117.53198242 189.94337463 C117.50076617 195.87410664 117.46160603 201.80468141 117.41172791 207.73528671 C117.39163296 210.52003308 117.38333603 213.30465847 117.37542725 216.08946228 C117.36245858 217.7918899 117.34893882 219.49431345 117.33477783 221.19673157 C117.33575974 221.97290329 117.33674164 222.74907501 117.3377533 223.54876709 C117.29391078 227.32245246 117.19375851 229.04156134 115.04766846 232.26069641 C112.34862399 232.55049921 109.87717867 232.64622677 107.17657471 232.61372375 C106.36329208 232.61588394 105.55000946 232.61804413 104.71208191 232.62026978 C102.94145667 232.62336303 101.1708101 232.61973241 99.40020752 232.6102562 C96.59105202 232.59654058 93.78260502 232.60294396 90.97344971 232.61509705 C82.98495956 232.64607772 74.99663047 232.64128025 67.00811768 232.62104797 C62.12322291 232.61008158 57.23885609 232.62343219 52.35403442 232.65094376 C50.4978569 232.65636086 48.64162581 232.65238071 46.78549194 232.63854599 C32.5849733 232.26709886 32.5849733 232.26709886 20.04766846 238.26069641 C14.19224789 244.60287454 12.67049026 249.58637402 12.77423096 258.18647766 C13.31804731 264.30052726 15.83859267 268.39133711 20.23516846 272.57319641 C26.63398312 277.47992798 33.7981371 278.70829416 41.6885376 278.69306946 C42.49939819 278.70326111 43.31025879 278.71345276 44.14569092 278.72395325 C46.79147471 278.75383645 49.43689506 278.76331096 52.08282471 278.77241516 C53.93085408 278.78928021 55.77887212 278.80743288 57.62687683 278.82681274 C62.46498062 278.87412071 67.30303839 278.90405393 72.14129639 278.93025208 C77.08869509 278.96015494 82.03593557 279.00665166 86.98321533 279.05171204 C96.67128327 279.13752643 106.35938397 279.20496851 116.04766846 279.26069641 C117.61260941 282.39057831 117.19185811 285.72749439 117.18951416 289.16352844 C117.19298859 289.98002365 117.19646301 290.79651886 117.20004272 291.63775635 C117.20740547 293.41492657 117.21274808 295.19210602 117.21633339 296.96928787 C117.22349452 299.78613495 117.23916025 302.60280738 117.25767517 305.41960144 C117.31014828 313.43008468 117.35808451 321.44047485 117.37359619 329.4511261 C117.38370275 334.34898169 117.41309971 339.24640174 117.454916 344.14408493 C117.46719776 346.00746738 117.47235243 347.87091145 117.47011757 349.73433304 C117.46775295 352.35052316 117.49001976 354.96547499 117.51763916 357.58149719 C117.51103775 358.34440567 117.50443634 359.10731415 117.49763489 359.89334106 C117.61007621 366.41661818 119.72948355 371.51711262 123.94219971 376.50288391 C129.70826572 381.4116733 134.33793629 383.57824901 142.04766846 383.13569641 C149.60218482 382.12842756 153.93840107 378.86369434 158.78594971 373.13960266 C162.05833059 368.26649057 162.34628033 363.65659495 162.35064697 357.92207336 C162.36330597 356.6822168 162.36330597 356.6822168 162.3762207 355.41731262 C162.40194056 352.69452826 162.41412355 349.97185213 162.42657471 347.24897766 C162.44275219 345.35518539 162.45993245 343.46140144 162.47807312 341.56762695 C162.52371557 336.58885029 162.5585482 331.61006252 162.590271 326.63117981 C162.64219516 318.65110487 162.70719187 310.67115187 162.77848625 302.69122887 C162.80135837 299.90037501 162.81760153 297.1095368 162.83320618 294.31863403 C162.84660857 292.61613287 162.860223 290.91363335 162.87408447 289.21113586 C162.87669785 288.43136887 162.87931122 287.65160187 162.88200378 286.84820557 C162.93403163 281.48797006 162.93403163 281.48797006 164.04766846 279.26069641 C165.57743568 279.25189705 165.57743568 279.25189705 167.1381073 279.24291992 C176.77453093 279.1855729 186.4107315 279.11274904 196.04692745 279.0249815 C201.00036411 278.9803568 205.95372002 278.94108339 210.9072876 278.91426086 C215.69258266 278.88814892 220.47756565 278.84769108 225.2626667 278.79751015 C227.08335027 278.78089466 228.90408775 278.7693474 230.72483635 278.7630825 C233.28581925 278.75338322 235.84601328 278.7252558 238.40679932 278.69306946 C239.15055313 278.69450455 239.89430695 278.69593964 240.66059875 278.69741821 C249.26404758 278.54564643 256.17146353 276.03849916 262.38360596 270.06147766 C267.36449396 264.67136177 267.58966427 259.55976912 267.38751221 252.45210266 C266.80068797 246.9413509 265.2395353 243.30613373 261.17657471 239.51460266 C254.88465935 234.55481305 249.73467051 232.96297414 241.70904541 232.98945618 C240.88247437 232.98422943 240.05590332 232.97900269 239.20428467 232.97361755 C237.41570744 232.96340162 235.62710068 232.95760136 233.83849525 232.95573616 C231.01038863 232.95206952 228.18263169 232.9353375 225.354599 232.91497803 C217.31640094 232.85957466 209.27815285 232.82879609 201.23980713 232.80439758 C196.31914447 232.78856254 191.39873354 232.75839448 186.47820091 232.7196331 C184.60147959 232.70795514 182.72471336 232.70205251 180.8479557 232.70195198 C178.23107031 232.70176087 175.61488507 232.68356708 172.99810791 232.66133118 C172.21834091 232.66590836 171.43857391 232.67048553 170.63517761 232.67520142 C168.48146057 232.64596558 168.48146057 232.64596558 165.04766846 232.26069641 C162.54750802 228.51045576 162.76909196 225.58528004 162.79229736 221.24433899 C162.78686668 220.01937714 162.78686668 220.01937714 162.78132629 218.76966858 C162.77443068 216.99524872 162.77192717 215.22080764 162.77327347 213.44637489 C162.77423838 210.63357847 162.761299 207.82116458 162.74429321 205.00842285 C162.69802121 197.01075748 162.67343058 189.01312966 162.66680908 181.01533508 C162.66178171 176.12283609 162.63746516 171.2307338 162.60148239 166.33836937 C162.59170848 164.4777687 162.58933925 162.61711327 162.59465408 160.75649452 C162.60176029 158.14524416 162.58436865 155.53516624 162.56182861 152.92402649 C162.57000107 152.16268906 162.57817352 151.40135162 162.58659363 150.61694336 C162.48923145 144.2406767 160.48592449 139.08623696 156.30157471 134.23725891 C155.46432861 133.56823547 155.46432861 133.56823547 154.61016846 132.88569641 C154.05458252 132.42421204 153.49899658 131.96272766 152.92657471 131.48725891 C141.84968754 124.25619327 129.24091311 127.79061696 121.27423096 137.38179016 Z " fill="#000000" transform="translate(115.95233154296875,-0.2606964111328125)"/>
</svg>
