<svg id="line" height="512" viewBox="0 0 64 64" width="512" xmlns="http://www.w3.org/2000/svg"><path d="m56.95117 43.9209-3.92041-3.9209a3.105 3.105 0 0 0 -4.5117.26908l-2.51271-1.48685a3.0539 3.0539 0 0 1 -1.49854-2.84571l.44483-6.60839a11.06321 11.06321 0 0 0 -.72071-4.71778l-7.21582-18.5791a3.04842 3.04842 0 0 0 -4.98089-1.10089 3.03879 3.03879 0 0 0 -1.317-.80438 3.09259 3.09259 0 0 0 -3.73437 1.83593l-7.21578 18.58009c-1.3494 2.83758-.3692 8.29357-.27589 11.3262a3.0544 3.0544 0 0 1 -1.49853 2.84665l-2.512 1.48651a3.04917 3.04917 0 0 0 -4.51191-.26967l-3.92091 3.92085a.99962.99962 0 0 0 0 1.41406l14.37207 14.37207a.99962.99962 0 0 0 1.41406 0l3.9209-3.9209a3.0142 3.0142 0 0 0 0-4.24218l-.39884-.39887c.958-.75763 4.68556-3.45176 5.62634-5.70468.91964 2.28558 4.682 4.99657 5.65961 5.77312a3.29964 3.29964 0 0 0 -1.27718 2.5199 2.98081 2.98081 0 0 0 .87838 2.12107l3.92083 3.92087a.99962.99962 0 0 0 1.41406 0l14.37211-14.372a.99962.99962 0 0 0 0-1.4141zm-25.0083-11.98633a8.75247 8.75247 0 0 1 .05181-3.91083 8.92494 8.92494 0 0 1 .0624 3.97821c-.05454.30017-.0635.13162-.11421-.06738zm.08942-12.86157a3.38643 3.38643 0 0 0 -1.58081-.92957l1.54046-6.67627 1.55646 6.74445a3.38377 3.38377 0 0 0 -1.51611.86139zm-6.69049 35.23071-3.21387 3.21387-12.958-12.958 3.21387-3.21387a1.00319 1.00319 0 0 1 1.41406 0l11.54346 11.544a1.0049 1.0049 0 0 1 .00048 1.414zm3.77246-8.23633a31.369 31.369 0 0 1 -4.20111 3.56549l-7.97187-7.97187 2.07093-1.22546a5.044 5.044 0 0 0 2.47509-4.70214l-.44482-6.6074a9.05609 9.05609 0 0 1 .58984-3.85938l7.21582-18.5801a1.07637 1.07637 0 0 1 2.04978.627l-2.52092 10.9236a3.38959 3.38959 0 0 0 -2.0484 2.15546l-2.59472 8.13086a.99988.99988 0 1 0 1.90527.60742l2.59474-8.13086a1.41255 1.41255 0 0 1 2.73679.64754l-1.13084 7.20793c-.4436 3.80718 1.192 5.81579 1.15166 10.70369.04495 2.39772-.3733 5.11718-1.87724 6.50822zm5.77148.06836c-1.51756-1.4047-1.93317-4.161-1.87613-6.583-.02465-4.85791 1.59381-6.83817 1.15075-10.62889l-1.13106-7.208a1.4125 1.4125 0 0 1 2.73683-.64738l2.59471 8.1298a.99988.99988 0 1 0 1.90527-.60742l-2.59472-8.12988a3.38689 3.38689 0 0 0 -2.04816-2.15424l-2.52118-10.92294a1.07651 1.07651 0 0 1 2.04982-.62879l7.21581 18.58a9.054 9.054 0 0 1 .58984 3.8584l-.44482 6.6084a5.04248 5.04248 0 0 0 2.47509 4.70117l2.07154 1.22583-7.97248 7.97247a31.369 31.369 0 0 1 -4.20111-3.56553zm6.98633 11.4502-3.21338-3.21387a.99319.99319 0 0 1 -.293-.707c0-.26758 11.83692-12.251 11.83692-12.251a1.00343 1.00343 0 0 1 1.41357 0l3.21387 3.21386z"/></svg>