<?xml version="1.0" encoding="UTF-8"?>
<svg xmlns="http://www.w3.org/2000/svg" xmlns:xlink="http://www.w3.org/1999/xlink" version="1.1" id="Capa_1" x="0px" y="0px" viewBox="0 0 512.454 512.454" style="enable-background:new 0 0 512.454 512.454;" xml:space="preserve" width="512" height="512">
<g>
	<path style="fill:none;stroke:#000000;stroke-width:30;stroke-linecap:round;stroke-linejoin:round;stroke-miterlimit:10;" d="&#10;&#9;&#9;M411.84,213.139c0-19.483-5.542-38.565-15.98-55.017L315.433,31.351c-5.24-8.621-14.133-14.563-24.177-15.516&#10;&#9;&#9;c-7.219-0.684-14.712,1.035-21.163,5.397l0,0c-14.214,9.612-18.231,28.601-9.102,43.041l37.982,72.173&#10;&#9;&#9;c12.11,19.97,16.401,42.355,16.401,65.642v9.894v83.444v-83.444c0-16.155-13.24-29.251-29.573-29.25h0&#10;&#9;&#9;c-16.333,0-29.573,13.096-29.573,29.25v99.907c0,28.24,11.728,55.24,32.439,74.679l115.975,110.885l81.106-81.479l-63.182-63.467&#10;&#9;&#9;c-6.891-7.282-10.725-16.883-10.725-26.856V213.139z"/>
	<g>
		<path style="fill:none;stroke:#000000;stroke-width:30;stroke-linecap:round;stroke-linejoin:round;stroke-miterlimit:10;" d="&#10;&#9;&#9;&#9;M100.614,212.449c0-19.483,5.542-38.565,15.98-55.017l80.428-126.771c5.24-8.621,14.133-14.563,24.177-15.516&#10;&#9;&#9;&#9;c7.219-0.684,14.712,1.035,21.163,5.397l0,0c14.214,9.612,18.231,28.601,9.102,43.041l-37.982,72.173&#10;&#9;&#9;&#9;c-12.11,19.97-16.401,42.355-16.401,65.642v9.894v83.444v-83.444c0-16.155,13.24-29.251,29.573-29.25h0&#10;&#9;&#9;&#9;c16.333,0,29.573,13.096,29.573,29.25V311.2c0,28.24-11.728,55.24-32.439,74.679L107.813,496.764l-81.106-81.479l63.182-63.467&#10;&#9;&#9;&#9;c6.891-7.282,10.725-16.883,10.725-26.856V212.449z"/>
	</g>
</g>















</svg>
