<svg id="Capa_1" enable-background="new 0 0 512.16 512.16" height="512" viewBox="0 0 512.16 512.16" width="512" xmlns="http://www.w3.org/2000/svg"><g><path d="m489.899 435.277-52.997-53.235c-.088-.089-.175-.179-.26-.269-10.551-11.148-16.36-25.708-16.36-40.998v-129.078c0-19.571-5.542-38.65-16.027-55.176l-92.268-145.433c-.051-.08-.101-.161-.151-.242-3.708-6.101-9.864-10.117-16.469-10.744-5.206-.49-10.252.791-14.576 3.715-5.279 3.57-8.474 9.002-9.302 14.792-.042 3.656-.731 7.472 3.673 15.405l43.369 82.41c13.944 23.174 20.725 50.198 20.725 82.596v81.123c0 7.981-6.133 14.848-14.104 15.223-8.511.401-15.538-6.381-15.538-14.804v-70.191c0-10.331-8.57-18.736-19.106-18.736s-19.106 8.405-19.106 18.736v.175c0 .013.001.025.001.038v114.475c.021 28.145 11.876 55.403 32.536 74.793.033.032.067.063.099.094l113.393 108.417c5.086 4.863 13.128 4.763 18.092-.224l54.376-54.627c5.02-5.041 5.02-13.193 0-18.235z"/><path d="m240.758 210.565c-.01-10.322-8.576-18.716-19.105-18.716-10.535 0-19.106 8.405-19.106 18.735v69.772c0 7.98-6.133 14.848-14.105 15.223-8.511.401-15.538-6.381-15.538-14.804v-81.541c0-32.397 6.781-59.423 20.725-82.596 0 0 32.309-61.923 43.369-82.41 2.412-4.468 4.017-6.801 3.657-15.505-.851-5.753-4.037-11.144-9.285-14.692-4.325-2.925-9.363-4.207-14.578-3.715-6.605.626-12.762 4.642-16.469 10.742-.049.082-.099.162-.151.243l-92.267 145.433c-10.484 16.526-16.026 35.606-16.026 55.177v129.077c0 15.289-5.81 29.849-16.36 40.997-.086.092-.173.181-.262.27l-52.996 53.235c-5.02 5.043-5.02 13.194 0 18.237l54.376 54.626c4.964 4.987 13.006 5.087 18.092.224l113.394-108.417c.033-.032.066-.063.099-.095 20.677-19.408 32.537-46.695 32.537-74.866v-.14c0-.025-.001-.049-.001-.074z"/></g></svg>