<svg id="Layer_1" enable-background="new 0 0 28 28" viewBox="0 0 28 28" xmlns="http://www.w3.org/2000/svg">
	<g><path d="m20 26h-12c-3.3 0-6-2.7-6-6v-12c0-3.3 2.7-6 6-6h7 5c3.3 0 6 2.7 6 6v12c0 3.3-2.7 6-6 6zm-16-16v10c0 2.2 1.8 4 4 4h12c2.2 0 4-1.8 4-4v-10zm15.5-2h4.5c0-2.2-1.8-4-4-4h-3.1zm-7 0h4.6l-2.7-4h-4.5zm-8.5 0h6.1l-2.6-4c-2 .3-3.5 2-3.5 4zm9 7.8v2.5l2.1-1.2zm-1 5.2c-.5 0-1-.5-1-1v-6c0-.4.2-.7.5-.9s.7-.2 1 0l5 3c.3.2.5.5.5.9s-.2.7-.5.9l-5 3c-.1.1-.3.1-.5.1z" fill="rgb(0,0,0)"/></g></svg>