<svg height="512" viewBox="0 0 24 24" width="512" xmlns="http://www.w3.org/2000/svg"><g id="Layer_2" data-name="Layer 2"><path d="m17 22.75h-14a1.75213 1.75213 0 0 1 -1.75-1.75v-18a1.75213 1.75213 0 0 1 1.75-1.75h14a1.75213 1.75213 0 0 1 1.75 1.75v11a.75.75 0 0 1 -1.5 0v-11a.253.253 0 0 0 -.25-.25h-14a.253.253 0 0 0 -.25.25v18a.253.253 0 0 0 .25.25h14a.77679.77679 0 0 1 1.00049.41455.73447.73447 0 0 1 -.39209.97168 1.6243 1.6243 0 0 1 -.6084.11377z"/><path d="m14.5 6.75h-9a.75.75 0 0 1 0-1.5h9a.75.75 0 0 1 0 1.5z"/><path d="m14.5 10.75h-9a.75.75 0 0 1 0-1.5h9a.75.75 0 0 1 0 1.5z"/><path d="m12 14.75h-6.5a.75.75 0 0 1 0-1.5h6.5a.75.75 0 0 1 0 1.5z"/><path d="m11 18.75h-5.5a.75.75 0 0 1 0-1.5h5.5a.75.75 0 0 1 0 1.5z"/><path d="m18 22.75a4.75 4.75 0 1 1 4.75-4.75 4.7554 4.7554 0 0 1 -4.75 4.75zm0-8a3.25 3.25 0 1 0 3.25 3.25 3.25377 3.25377 0 0 0 -3.25-3.25z"/><path d="m17.5 19.75a.74754.74754 0 0 1 -.53027-.21973l-1-1a.74992.74992 0 1 1 1.06054-1.06054l.46973.46972 1.46973-1.46972a.74992.74992 0 0 1 1.06054 1.06054l-2 2a.74754.74754 0 0 1 -.53027.21973z"/></g></svg>